<svg width="15" height="15" viewBox="0 0 15 15" fill="none" xmlns="http://www.w3.org/2000/svg">
<g clip-path="url(#clip0_1_34)">
<path d="M4.83105 0.720601C4.60547 0.175679 4.01074 -0.11436 3.44238 0.0409133L0.864258 0.744038C0.354492 0.884663 0 1.34755 0 1.8749C0 9.12294 5.87695 14.9999 13.125 14.9999C13.6523 14.9999 14.1152 14.6454 14.2559 14.1356L14.959 11.5575C15.1143 10.9892 14.8242 10.3944 14.2793 10.1688L11.4668 8.99697C10.9893 8.79775 10.4355 8.93544 10.1104 9.33681L8.92676 10.7811C6.86426 9.80556 5.19434 8.13564 4.21875 6.07314L5.66309 4.89248C6.06445 4.56435 6.20215 4.01357 6.00293 3.53603L4.83105 0.723531V0.720601Z" fill="#333333"/>
</g>
<defs>
<clipPath id="clip0_1_34">
<rect width="15" height="15" fill="white"/>
</clipPath>
</defs>
</svg>
