<svg width="118" height="141" viewBox="0 0 118 141" fill="none" xmlns="http://www.w3.org/2000/svg">
<g clip-path="url(#clip0_25_205)">
<path d="M-7.10996 53.1504L-4.52129 57.6668C-2.23555 61.66 1.50977 64.6066 5.94355 65.8734L21.8887 70.4174C26.6254 71.7668 29.875 76.0904 29.875 81.0199V92.008C29.875 95.0373 31.5824 97.7912 34.2812 99.1406C36.9801 100.49 38.6875 103.244 38.6875 106.273V117.013C38.6875 121.31 42.7908 124.421 46.9217 123.237C51.3555 121.971 54.7979 118.418 55.927 113.929L56.698 110.845C57.8547 106.191 60.884 102.197 65.0424 99.8291L67.273 98.5623C71.4039 96.2215 73.9375 91.8152 73.9375 87.0785V84.7928C73.9375 81.2953 72.533 77.9355 70.0545 75.457L68.9805 74.383C66.502 71.9045 63.1422 70.5 59.6447 70.5H47.7754C44.7186 70.5 41.6893 69.7014 39.018 68.1867L29.517 62.7615C28.3328 62.073 27.424 60.9715 26.9834 59.6771C26.1021 57.0334 27.2863 54.1693 29.7924 52.9301L31.4172 52.1039C33.2348 51.1951 35.3553 51.0299 37.283 51.6908L43.6721 53.8113C45.9303 54.5549 48.4088 53.7012 49.7031 51.7459C50.9975 49.8182 50.8598 47.257 49.3727 45.467L45.6273 40.9781C42.8734 37.6734 42.901 32.8541 45.71 29.6045L50.0336 24.5648C52.457 21.7283 52.8426 17.6801 50.9975 14.458L50.3365 13.3014C49.3727 13.2463 48.4363 13.2188 47.4725 13.2188C21.9162 13.2188 0.24297 29.99 -7.10996 53.1504ZM104.781 70.5C104.781 60.3656 102.138 50.8371 97.5109 42.5479L90.4609 45.3844C86.1373 47.1193 83.9066 51.9387 85.3662 56.3449L90.0203 70.3072C90.9842 73.1713 93.325 75.3469 96.2441 76.0629L104.258 78.0732C104.588 75.5947 104.754 73.0611 104.754 70.5H104.781ZM-23 70.5C-23 51.8022 -15.5723 33.8703 -2.35103 20.649C10.8703 7.42766 28.8022 0 47.5 0C66.1978 0 84.1297 7.42766 97.351 20.649C110.572 33.8703 118 51.8022 118 70.5C118 89.1978 110.572 107.13 97.351 120.351C84.1297 133.572 66.1978 141 47.5 141C28.8022 141 10.8703 133.572 -2.35103 120.351C-15.5723 107.13 -23 89.1978 -23 70.5Z" fill="#3A3A3A"/>
</g>
<defs>
<clipPath id="clip0_25_205">
<rect width="141" height="141" fill="white" transform="translate(-23)"/>
</clipPath>
</defs>
</svg>
