<svg width="304" height="512" viewBox="0 0 304 512" fill="none" xmlns="http://www.w3.org/2000/svg">
<path d="M-150.3 193L-140.9 209.4C-132.6 223.9 -119 234.6 -102.9 239.2L-45 255.7C-27.8 260.6 -16 276.3 -16 294.2V334.1C-16 345.1 -9.8 355.1 0 360C9.8 364.9 16 374.9 16 385.9V424.9C16 440.5 30.9 451.8 45.9 447.5C62 442.9 74.5 430 78.6 413.7L81.4 402.5C85.6 385.6 96.6 371.1 111.7 362.5L119.8 357.9C134.8 349.4 144 333.4 144 316.2V307.9C144 295.2 138.9 283 129.9 274L126 270.1C117 261.1 104.8 256 92.1 256H49C37.9 256 26.9 253.1 17.2 247.6L-17.3 227.9C-21.6 225.4 -24.9 221.4 -26.5 216.7C-29.7 207.1 -25.4 196.7 -16.3 192.2L-10.4 189.2C-3.79999 185.9 3.89999 185.3 10.9 187.7L34.1 195.4C42.3 198.1 51.3 195 56 187.9C60.7 180.9 60.2 171.6 54.8 165.1L41.2 148.8C31.2 136.8 31.3 119.3 41.5 107.5L57.2 89.2C66 78.9 67.4 64.2 60.7 52.5L58.3 48.3C54.8 48.1 51.4 48 47.9 48C-44.9 48 -123.6 108.9 -150.3 193ZM256 256C256 219.2 246.4 184.6 229.6 154.5L204 164.8C188.3 171.1 180.2 188.6 185.5 204.6L202.4 255.3C205.9 265.7 214.4 273.6 225 276.2L254.1 283.5C255.3 274.5 255.9 265.3 255.9 256H256ZM-208 256C-208 188.105 -181.029 122.99 -133.019 74.9807C-85.01 26.9714 -19.8954 0 48 0C115.895 0 181.01 26.9714 229.019 74.9807C277.029 122.99 304 188.105 304 256C304 323.895 277.029 389.01 229.019 437.019C181.01 485.029 115.895 512 48 512C-19.8954 512 -85.01 485.029 -133.019 437.019C-181.029 389.01 -208 323.895 -208 256Z" fill="#3A3A3A"/>
</svg>
