<svg width="87" height="105" viewBox="0 0 87 105" fill="none" xmlns="http://www.w3.org/2000/svg">
<path d="M58.1046 29.2926C45.8297 25.5867 32.7751 33.0431 28.8653 45.9933C24.9555 58.9435 31.7028 72.3784 43.9778 76.0843C56.2527 79.7902 69.3073 72.3338 73.2171 59.3836C77.1269 46.4334 70.3796 32.9986 58.1046 29.2926ZM46.449 67.8988C38.5167 65.5039 34.0912 56.7249 36.6239 48.3357C39.1567 39.9466 47.6817 35.0774 55.6334 37.4781C63.585 39.8788 67.9912 48.6521 65.4584 57.0412C62.9257 65.4303 54.3814 70.2937 46.449 67.8988ZM86.6491 36.8663C85.7331 39.9002 82.6855 41.624 79.8291 40.7616C76.9534 39.8934 75.3943 36.7566 76.3042 33.743C77.214 30.7295 80.2677 28.9853 83.1241 29.8477C85.9806 30.71 87.5589 33.8527 86.6491 36.8663ZM99.6644 46.839C101.543 39.43 101.916 32.4771 98.4502 25.6098C95.0042 18.7483 89.3708 15.2257 82.5527 12.7673C75.5407 10.1837 54.1368 3.72168 46.8666 1.99331C39.8527 0.253425 33.2111 0.0701359 26.5245 3.87247C19.8379 7.67481 16.3197 13.6779 13.7654 20.8829C11.0855 28.2945 4.26795 50.8758 2.39869 58.5321C0.519849 65.9411 0.147568 72.894 3.61288 79.7613C7.0782 86.6286 12.6923 90.1454 19.5104 92.6038C26.5224 95.1874 47.9263 101.649 55.1965 103.378C62.2297 105.124 68.8713 105.307 75.5447 101.478C82.212 97.6701 85.7495 91.6728 88.3039 84.4678C90.9837 77.0563 97.7951 54.4953 99.6644 46.839ZM76.6378 89.7662C73.9275 93.3026 70.0849 95.4974 65.7971 95.9581C59.3843 96.6215 46.0402 91.9929 39.7483 90.0933C33.4564 88.1937 19.7671 84.6384 14.806 80.5633C11.5027 77.833 9.5166 73.8785 9.20294 69.4069C8.75832 62.7184 13.5827 48.6224 15.5867 41.9844C17.5908 35.3464 21.3984 20.9212 25.4446 15.6107C28.1549 12.0743 31.9975 9.87952 36.2853 9.41884C42.6981 8.75544 56.0422 13.3841 62.3341 15.2836C68.626 17.1832 82.3152 20.7385 87.2764 24.8136C90.5797 27.5439 92.5658 31.4984 92.8795 35.97C93.3241 42.6586 88.4997 56.7546 86.4957 63.3925C84.4916 70.0305 80.7033 84.4615 76.6378 89.7662Z" fill="#3A3A3A"/>
</svg>
