<svg width="286" height="363" viewBox="0 0 286 363" fill="none" xmlns="http://www.w3.org/2000/svg">
<g clip-path="url(#clip0_25_151)">
<path d="M188.089 116.822C152.514 106.082 115.145 126.153 104.389 161.777C93.6341 197.401 113.654 234.799 149.228 245.539C184.803 256.279 222.172 236.208 232.928 200.584C243.683 164.96 223.664 127.563 188.089 116.822ZM156.026 223.022C133.037 216.081 119.908 191.643 126.875 168.566C133.842 145.489 158.246 132.382 181.291 139.339C204.336 146.297 217.409 170.718 210.442 193.795C203.475 216.873 179.015 229.963 156.026 223.022ZM270.773 138.913C268.253 147.259 259.528 151.898 251.25 149.398C242.916 146.882 238.289 138.151 240.791 129.861C243.294 121.571 252.036 116.876 260.314 119.376C268.592 121.875 273.275 130.623 270.773 138.913ZM308.739 166.999C313.859 146.604 314.65 127.407 304.37 108.29C294.146 89.1906 277.745 79.2274 257.969 72.1566C237.628 64.732 175.596 46.004 154.545 40.9319C134.233 35.8385 115.059 35.0613 95.9177 45.2953C76.7762 55.5292 66.8678 71.9733 59.79 91.7779C52.3584 112.148 33.6044 174.266 28.522 195.345C23.4019 215.741 22.611 234.937 32.8912 254.054C43.1714 273.171 59.5161 283.117 79.2923 290.188C99.6331 297.612 161.665 316.34 182.716 321.412C203.084 326.523 222.258 327.3 241.36 316.993C260.446 306.742 270.41 290.315 277.488 270.511C284.92 250.141 303.657 188.079 308.739 166.999ZM244.038 284.675C236.36 294.337 225.361 300.245 213.005 301.343C194.526 302.914 155.828 289.581 137.593 284.076C119.359 278.57 79.7087 268.189 65.2255 256.726C55.5813 249.048 49.6886 238.04 48.6012 225.671C47.0455 207.172 60.3933 168.419 65.9062 150.159C71.4191 131.899 81.8193 92.1947 93.2795 77.6859C100.957 68.0247 111.957 62.1167 124.312 61.0186C142.791 59.4468 181.489 72.7803 199.724 78.2856C217.958 83.7909 257.608 94.1725 272.092 105.635C281.736 113.314 287.628 124.322 288.716 136.69C290.272 155.19 276.924 193.943 271.411 212.203C265.898 230.463 255.554 270.184 244.038 284.675Z" fill="#3A3A3A"/>
</g>
<defs>
<clipPath id="clip0_25_151">
<rect width="261.76" height="299.57" fill="white" transform="translate(86.5833) rotate(16.7996)"/>
</clipPath>
</defs>
</svg>
