<svg width="251" height="53" viewBox="0 0 251 53" fill="none" xmlns="http://www.w3.org/2000/svg">
<path id="Arrow 1" d="M249.103 51.4965C249.93 51.4395 250.553 50.7233 250.496 49.8968L249.568 36.4288C249.511 35.6024 248.794 34.9786 247.968 35.0356C247.141 35.0926 246.518 35.8088 246.575 36.6352L247.4 48.6068L235.429 49.4324C234.602 49.4894 233.979 50.2056 234.036 51.0321C234.093 51.8585 234.809 52.4823 235.635 52.4253L249.103 51.4965ZM1.98517 51.1312C22.4691 33.2903 59.4079 11.8383 103.511 5.58519C147.549 -0.658885 198.77 8.24058 248.015 51.1312L249.985 48.8689C200.03 5.35952 147.917 -3.74102 103.089 2.6149C58.3254 8.96178 20.8642 30.7098 0.0148285 48.8689L1.98517 51.1312Z" fill="white"/>
</svg>
