<svg width="98" height="131" viewBox="0 0 98 131" fill="none" xmlns="http://www.w3.org/2000/svg">
<g clip-path="url(#clip0_35_44)">
<path d="M12.25 114.625V16.375C12.25 14.1234 14.0875 12.2812 16.3333 12.2812H57.1667V32.75C57.1667 37.2787 60.8161 40.9375 65.3333 40.9375H85.75V114.625C85.75 116.877 83.9125 118.719 81.6667 118.719H16.3333C14.0875 118.719 12.25 116.877 12.25 114.625ZM16.3333 0C7.32448 0 0 7.34316 0 16.375V114.625C0 123.657 7.32448 131 16.3333 131H81.6667C90.6755 131 98 123.657 98 114.625V39.5303C98 35.1807 96.2901 31.0102 93.2276 27.9398L70.1057 4.78457C67.0432 1.71426 62.9089 0 58.5703 0H16.3333ZM30.3698 61.6877C29.4 58.4383 25.9802 56.5961 22.7391 57.5684C19.4979 58.5406 17.6604 61.9691 18.6302 65.2186L30.8802 106.156C31.6458 108.766 34.0448 110.531 36.75 110.531C39.4552 110.531 41.8286 108.74 42.6198 106.156L49 84.8174L55.3802 106.156C56.1458 108.766 58.5448 110.531 61.25 110.531C63.9552 110.531 66.3287 108.74 67.1198 106.156L79.3698 65.2186C80.3396 61.9691 78.5021 58.5406 75.2609 57.5684C72.0198 56.5961 68.6 58.4383 67.6302 61.6877L61.25 83.0264L54.8698 61.6877C54.1042 59.0779 51.7052 57.3125 49 57.3125C46.2948 57.3125 43.9214 59.1035 43.1302 61.6877L36.75 83.0264L30.3698 61.6877Z" fill="#FFA944"/>
</g>
<defs>
<clipPath id="clip0_35_44">
<rect width="98" height="131" fill="white"/>
</clipPath>
</defs>
</svg>
