<svg width="108" height="108" viewBox="0 0 108 108" fill="none" xmlns="http://www.w3.org/2000/svg">
<g clip-path="url(#clip0_35_40)">
<path d="M105.068 1.18132C107.198 2.65789 108.316 5.21023 107.916 7.76257L94.4155 95.5126C94.0991 97.5587 92.8546 99.3516 91.0405 100.364C89.2265 101.377 87.0538 101.503 85.1343 100.702L59.9062 90.218L45.4569 105.849C43.5796 107.895 40.6265 108.57 38.0319 107.557C35.4374 106.545 33.7499 104.034 33.7499 101.25V83.6157C33.7499 82.7719 34.0663 81.9704 34.6359 81.3587L69.989 42.7782C71.2124 41.4493 71.1702 39.4032 69.9046 38.1376C68.639 36.872 66.5929 36.7876 65.264 37.9899L22.3593 76.1063L3.73351 66.7829C1.49757 65.6649 0.0631971 63.429 -8.41599e-05 60.9399C-0.0633654 58.4509 1.24445 56.1305 3.39601 54.886L97.896 0.886012C100.153 -0.400707 102.937 -0.274145 105.068 1.18132Z" fill="#FFA944"/>
</g>
<defs>
<clipPath id="clip0_35_40">
<rect width="108" height="108" fill="white"/>
</clipPath>
</defs>
</svg>
