<svg width="98" height="98" viewBox="0 0 98 98" fill="none" xmlns="http://www.w3.org/2000/svg">
<g clip-path="url(#clip0_35_42)">
<path d="M90.2672 4.15361C86.0754 -0.0381837 79.2996 -0.0381837 75.1078 4.15361L69.3465 9.8958L88.0852 28.6345L93.8465 22.8731C98.0383 18.6813 98.0383 11.9056 93.8465 7.71377L90.2672 4.15361ZM32.9984 46.263C31.8309 47.4306 30.9312 48.8661 30.4145 50.4548L24.7488 67.4517C24.1938 69.0978 24.634 70.9161 25.859 72.1603C27.084 73.4044 28.9023 73.8255 30.5676 73.2704L47.5645 67.6048C49.134 67.088 50.5695 66.1884 51.7562 65.0208L83.7785 32.9794L65.0207 14.2216L32.9984 46.263ZM18.375 12.2501C8.23047 12.2501 0 20.4806 0 30.6251V79.6251C0 89.7696 8.23047 98.0001 18.375 98.0001H67.375C77.5195 98.0001 85.75 89.7696 85.75 79.6251V61.2501C85.75 57.8622 83.0129 55.1251 79.625 55.1251C76.2371 55.1251 73.5 57.8622 73.5 61.2501V79.6251C73.5 83.013 70.7629 85.7501 67.375 85.7501H18.375C14.9871 85.7501 12.25 83.013 12.25 79.6251V30.6251C12.25 27.2372 14.9871 24.5001 18.375 24.5001H36.75C40.1379 24.5001 42.875 21.763 42.875 18.3751C42.875 14.9872 40.1379 12.2501 36.75 12.2501H18.375Z" fill="#FFA944"/>
</g>
<defs>
<clipPath id="clip0_35_42">
<rect width="98" height="98" fill="white"/>
</clipPath>
</defs>
</svg>
