<svg width="100" height="101" viewBox="0 0 100 101" fill="none" xmlns="http://www.w3.org/2000/svg">
<path d="M54.6875 0.999765C79.707 0.999765 100 21.2927 100 46.3123C100 48.9099 97.9102 50.9998 95.3125 50.9998C92.7148 50.9998 90.625 48.9099 90.625 46.3123C90.625 26.4685 74.5312 10.3748 54.6875 10.3748C52.0898 10.3748 50 8.28492 50 5.68727C50 3.08961 52.0898 0.999765 54.6875 0.999765ZM56.25 38.4998C57.9076 38.4998 59.4973 39.1582 60.6694 40.3303C61.8415 41.5025 62.5 43.0922 62.5 44.7498C62.5 46.4074 61.8415 47.9971 60.6694 49.1692C59.4973 50.3413 57.9076 50.9998 56.25 50.9998C54.5924 50.9998 53.0027 50.3413 51.8306 49.1692C50.6585 47.9971 50 46.4074 50 44.7498C50 43.0922 50.6585 41.5025 51.8306 40.3303C53.0027 39.1582 54.5924 38.4998 56.25 38.4998ZM50 24.4373C50 21.8396 52.0898 19.7498 54.6875 19.7498C69.3555 19.7498 81.25 31.6443 81.25 46.3123C81.25 48.9099 79.1602 50.9998 76.5625 50.9998C73.9648 50.9998 71.875 48.9099 71.875 46.3123C71.875 36.8201 64.1797 29.1248 54.6875 29.1248C52.0898 29.1248 50 27.0349 50 24.4373ZM22.9492 1.2732C26.7383 0.238046 30.7031 2.17164 32.207 5.80445L40.0195 24.5545C41.3477 27.738 40.4297 31.4295 37.7539 33.5974L28.125 41.488C34.6289 55.238 45.7617 66.3709 59.5117 72.8748L67.3828 63.2459C69.5703 60.5701 73.2422 59.6521 76.4258 60.9802L95.1758 68.7927C98.8086 70.2966 100.742 74.2615 99.707 78.0505L95.0195 95.238C94.1016 98.6365 91.0156 101 87.5 101C39.1797 101 0 61.8201 0 13.4998C0 9.98414 2.36328 6.8982 5.76172 5.9607L22.9492 1.2732Z" fill="#FFA944"/>
</svg>
