<svg width="89" height="119" viewBox="0 0 89 119" fill="none" xmlns="http://www.w3.org/2000/svg">
<g id="clipboard-solid 1" clip-path="url(#clip0_29_417)">
<path id="Vector" d="M44.5 0C54.188 0 62.4391 6.20566 65.4753 14.875H74.1667C82.3482 14.875 89 21.5455 89 29.75V104.125C89 112.329 82.3482 119 74.1667 119H14.8333C6.65182 119 1.90735e-06 112.329 1.90735e-06 104.125V29.75C1.90735e-06 21.5455 6.65182 14.875 14.8333 14.875H23.5247C26.5609 6.20566 34.812 0 44.5 0ZM44.5 14.875C42.533 14.875 40.6465 15.6586 39.2556 17.0534C37.8647 18.4482 37.0833 20.34 37.0833 22.3125C37.0833 24.285 37.8647 26.1768 39.2556 27.5716C40.6465 28.9664 42.533 29.75 44.5 29.75C46.467 29.75 48.3535 28.9664 49.7444 27.5716C51.1353 26.1768 51.9167 24.285 51.9167 22.3125C51.9167 20.34 51.1353 18.4482 49.7444 17.0534C48.3535 15.6586 46.467 14.875 44.5 14.875ZM63.0417 44.625H25.9583C23.9188 44.625 22.25 46.2984 22.25 48.3438C22.25 50.3891 23.9188 52.0625 25.9583 52.0625H63.0417C65.0813 52.0625 66.75 50.3891 66.75 48.3438C66.75 46.2984 65.0813 44.625 63.0417 44.625Z" fill="white"/>
</g>
<defs>
<clipPath id="clip0_29_417">
<rect width="89" height="119" fill="white" transform="matrix(-1 0 0 1 89 0)"/>
</clipPath>
</defs>
</svg>
