<svg width="87" height="109" viewBox="0 0 87 109" fill="none" xmlns="http://www.w3.org/2000/svg">
<g id="user-solid 1" clip-path="url(#clip0_29_442)">
<path id="Vector" d="M43.5 63.5C50.0925 63.5 56.415 60.629 61.0767 55.5187C65.7383 50.4083 68.3571 43.4771 68.3571 36.25C68.3571 29.0229 65.7383 22.0917 61.0767 16.9813C56.415 11.871 50.0925 9 43.5 9C36.9075 9 30.585 11.871 25.9233 16.9813C21.2617 22.0917 18.6429 29.0229 18.6429 36.25C18.6429 43.4771 21.2617 50.4083 25.9233 55.5187C30.585 60.629 36.9075 63.5 43.5 63.5ZM34.6252 73.7188C15.4969 73.7188 0 90.7074 0 111.677C0 115.169 2.58281 118 5.76763 118H81.2324C84.4172 118 87 115.169 87 111.677C87 90.7074 71.5031 73.7188 52.3748 73.7188H34.6252Z" fill="white"/>
</g>
<defs>
<clipPath id="clip0_29_442">
<rect width="87" height="109" fill="white"/>
</clipPath>
</defs>
</svg>
